<?xml version="1.0" standalone="no"?>
<!DOCTYPE svg PUBLIC "-//W3C//DTD SVG 20010904//EN"
 "http://www.w3.org/TR/2001/REC-SVG-20010904/DTD/svg10.dtd">
<svg version="1.0" xmlns="http://www.w3.org/2000/svg"
 width="80.000000px" height="80.000000px" viewBox="0 0 980.000000 980.000000"
 preserveAspectRatio="xMidYMid meet">
<metadata>
Created by potrace 1.16, written by Peter Selinger 2001-2019
</metadata>
<g transform="translate(0.000000,980.000000) scale(0.100000,-0.100000)"
fill="#000000" stroke="none">
<path d="M4560 9789 c-1035 -75 -1998 -463 -2800 -1128 -150 -123 -501 -475
-622 -621 -881 -1068 -1270 -2403 -1098 -3765 119 -934 501 -1801 1124 -2545
98 -117 370 -393 496 -504 1328 -1166 3158 -1531 4825 -962 895 305 1700 879
2281 1627 735 946 1100 2126 1024 3314 -70 1094 -491 2109 -1216 2935 -112
128 -386 398 -509 501 -763 642 -1665 1026 -2665 1134 -174 19 -664 27 -840
14z m1000 -4914 l0 -2435 -465 0 -465 0 0 1750 0 1751 -91 -78 c-297 -256
-652 -461 -1022 -592 l-87 -31 2 421 3 420 117 48 c389 161 849 512 1056 806
60 85 192 334 192 362 0 10 74 13 380 13 l380 0 0 -2435z"/>
</g>
</svg>
