<?xml version="1.0" standalone="no"?>
<!DOCTYPE svg PUBLIC "-//W3C//DTD SVG 20010904//EN"
 "http://www.w3.org/TR/2001/REC-SVG-20010904/DTD/svg10.dtd">
<svg version="1.0" xmlns="http://www.w3.org/2000/svg"
 width="80.000000px" height="80.000000px" viewBox="0 0 980.000000 980.000000"
 preserveAspectRatio="xMidYMid meet">
<metadata>
Created by potrace 1.16, written by Peter Selinger 2001-2019
</metadata>
<g transform="translate(0.000000,980.000000) scale(0.100000,-0.100000)"
fill="#000000" stroke="none">
<path d="M4560 9789 c-1035 -75 -1998 -463 -2800 -1128 -150 -123 -501 -475
-622 -621 -881 -1068 -1270 -2403 -1098 -3765 119 -934 501 -1801 1124 -2545
98 -117 370 -393 496 -504 1328 -1166 3158 -1531 4825 -962 895 305 1700 879
2281 1627 540 695 884 1520 993 2384 178 1410 -247 2797 -1185 3865 -112 128
-386 398 -509 501 -763 642 -1665 1026 -2665 1134 -174 19 -664 27 -840 14z
m688 -2560 c537 -58 939 -316 1151 -736 96 -191 135 -368 134 -613 -2 -367
-102 -672 -338 -1025 -174 -260 -321 -421 -750 -818 -339 -315 -541 -512 -614
-602 -56 -69 -141 -189 -141 -199 0 -4 416 -6 925 -6 l925 0 0 -430 0 -430
-1630 0 -1630 0 0 28 c0 42 28 193 56 299 75 290 228 588 439 858 196 251 409
474 900 940 688 654 808 803 897 1112 30 103 32 332 5 433 -56 208 -187 344
-392 406 -46 15 -93 19 -205 19 -163 0 -218 -12 -332 -72 -73 -38 -168 -129
-211 -204 -53 -91 -98 -252 -113 -407 l-7 -74 -31 6 c-17 2 -226 24 -465 47
l-433 43 6 60 c33 303 152 629 301 828 211 281 577 475 1005 532 128 17 415
20 548 5z"/>
</g>
</svg>
