<?xml version="1.0" standalone="no"?>
<!DOCTYPE svg PUBLIC "-//W3C//DTD SVG 20010904//EN"
 "http://www.w3.org/TR/2001/REC-SVG-20010904/DTD/svg10.dtd">
<svg version="1.0" xmlns="http://www.w3.org/2000/svg"
 width="80.000000px" height="80.000000px" viewBox="0 0 980.000000 980.000000"
 preserveAspectRatio="xMidYMid meet">
<metadata>
Created by potrace 1.16, written by Peter Selinger 2001-2019
</metadata>
<g transform="translate(0.000000,980.000000) scale(0.100000,-0.100000)"
fill="#000000" stroke="none">
<path d="M4560 9789 c-1035 -75 -1998 -463 -2800 -1128 -150 -123 -501 -475
-622 -621 -881 -1068 -1270 -2403 -1098 -3765 119 -934 501 -1801 1124 -2545
98 -117 370 -393 496 -504 1328 -1166 3158 -1531 4825 -962 895 305 1700 879
2281 1627 735 946 1100 2126 1024 3314 -70 1094 -491 2109 -1216 2935 -112
128 -386 398 -509 501 -763 642 -1665 1026 -2665 1134 -174 19 -664 27 -840
14z m1380 -3944 l0 -1545 300 0 300 0 0 -405 0 -405 -300 0 -300 0 -2 -487 -3
-488 -447 -3 -448 -2 0 490 0 490 -995 0 -995 0 0 409 0 408 1053 1542 1052
1541 393 0 392 0 0 -1545z"/>
<path d="M4475 5134 c-302 -448 -552 -820 -553 -825 -2 -6 210 -8 555 -7 l558
3 3 823 c1 452 -1 822 -5 822 -5 0 -255 -367 -558 -816z"/>
</g>
</svg>
