<?xml version="1.0" standalone="no"?>
<!DOCTYPE svg PUBLIC "-//W3C//DTD SVG 20010904//EN"
 "http://www.w3.org/TR/2001/REC-SVG-20010904/DTD/svg10.dtd">
<svg version="1.0" xmlns="http://www.w3.org/2000/svg"
 width="80.000000px" height="80.000000px" viewBox="0 0 980.000000 980.000000"
 preserveAspectRatio="xMidYMid meet">
<metadata>
Created by potrace 1.16, written by Peter Selinger 2001-2019
</metadata>
<g transform="translate(0.000000,980.000000) scale(0.100000,-0.100000)"
fill="#000000" stroke="none">
<path d="M4560 9789 c-1035 -75 -1998 -463 -2800 -1128 -150 -123 -501 -475
-622 -621 -881 -1068 -1270 -2403 -1098 -3765 119 -934 501 -1801 1124 -2545
98 -117 370 -393 496 -504 1328 -1166 3158 -1531 4825 -962 895 305 1700 879
2281 1627 735 946 1100 2126 1024 3314 -70 1094 -491 2109 -1216 2935 -112
128 -386 398 -509 501 -763 642 -1665 1026 -2665 1134 -174 19 -664 27 -840
14z m594 -2429 c312 -53 568 -188 783 -413 252 -264 372 -590 334 -911 -41
-358 -225 -624 -589 -853 -48 -30 -86 -57 -85 -60 1 -4 39 -17 85 -30 184 -52
379 -171 507 -309 80 -85 171 -224 212 -323 117 -282 124 -655 19 -973 -102
-307 -346 -614 -635 -800 -169 -109 -380 -191 -591 -229 -170 -32 -496 -32
-668 0 -233 42 -470 140 -648 268 -106 76 -258 228 -331 330 -79 112 -159 267
-201 393 -34 104 -84 335 -74 346 6 5 891 114 895 110 2 -1 10 -40 18 -85 69
-363 304 -594 628 -617 193 -13 364 51 503 190 142 142 211 318 221 562 7 155
-7 264 -46 375 -69 196 -217 348 -399 411 -59 20 -85 23 -222 22 -133 0 -172
-4 -273 -28 -66 -15 -121 -25 -125 -22 -5 6 83 690 94 729 5 14 18 17 92 17
406 1 682 251 682 620 0 261 -132 447 -365 516 -97 28 -250 24 -349 -10 -222
-76 -369 -269 -416 -545 -12 -71 -13 -73 -39 -68 -14 3 -206 36 -426 73 -220
37 -401 68 -403 69 -2 2 6 43 18 91 86 362 210 606 404 792 221 212 528 344
889 382 123 13 365 3 501 -20z"/>
</g>
</svg>
